<svg xmlns="http://www.w3.org/2000/svg"  viewBox="0 0 128 128" width="64px" height="64px"><path d="M124.5 121.4H44.1c-1.7 0-3 1.3-3 3s1.3 3 3 3h80.4c1.7 0 3-1.3 3-3S126.2 121.4 124.5 121.4zM1.1 124.4c0 1.7 1.3 3 3 3h20c1.7 0 3-1.3 3-3s-1.3-3-3-3h-20C2.5 121.4 1.1 122.8 1.1 124.4zM111.3 8.4L111.3 8.4c-5.9-5.9-15.4-5.9-21.2 0 0 0-4.8 4.8-7.5 7.5 0 0-.1 0-.1 0-.5-.2-1-.3-1.5-.5-1.1-.3-2.2 0-2.9.7 0 0-60.9 60.9-60.9 60.9-.5.5-.8 1.1-.8 1.7L13 102.4l-2.7 2.7c-1.1 1.1-1.3 3-.3 4.2.6.7 1.4 1 2.3 1 .8 0 1.5-.3 2.1-.9l2.8-2.8 23.8-3.4c.6-.1 1.2-.4 1.7-.8l60.9-60.9c.8-.8 1-1.9.7-2.9-.2-.5-.3-1-.5-1.5l7.5-7.5C117.2 23.7 117.2 14.3 111.3 8.4zM19.4 100.3L22 82c7.5 2.4 13.4 8.2 15.7 15.7L19.4 100.3zM42.7 93.9c-3-7.8-9.2-13.9-17-17L81 21.7c10.3 3.6 15.6 10.9 17.1 16.8L42.7 93.9z"/></svg>