<svg width="314" height="40" viewBox="0 0 314 40" fill="none" xmlns="http://www.w3.org/2000/svg">
<path d="M43.8878 13.9876V10.8182H58.8203V13.9876H53.2539V29H49.4542V13.9876H43.8878ZM64.9904 21.1165V29H61.2085V10.8182H64.8839V17.7695H65.0437C65.3514 16.9646 65.8486 16.3343 66.5352 15.8786C67.2217 15.4169 68.0829 15.1861 69.1186 15.1861C70.0656 15.1861 70.8912 15.3932 71.5955 15.8075C72.3058 16.2159 72.8562 16.8048 73.2468 17.5742C73.6433 18.3377 73.8387 19.2521 73.8327 20.3175V29H70.0508V20.9922C70.0567 20.1518 69.8436 19.4978 69.4116 19.0302C68.9854 18.5626 68.3877 18.3288 67.6183 18.3288C67.1033 18.3288 66.6476 18.4383 66.2511 18.6573C65.8604 18.8763 65.5527 19.1959 65.3278 19.6161C65.1088 20.0304 64.9963 20.5305 64.9904 21.1165ZM83.0235 29.2663C81.6208 29.2663 80.4134 28.9822 79.4014 28.4141C78.3952 27.84 77.6199 27.0291 77.0754 25.9815C76.5309 24.928 76.2586 23.6822 76.2586 22.244C76.2586 20.8413 76.5309 19.6102 77.0754 18.5508C77.6199 17.4914 78.3863 16.6657 79.3747 16.0739C80.3691 15.482 81.535 15.1861 82.8726 15.1861C83.7722 15.1861 84.6097 15.3311 85.385 15.6211C86.1663 15.9052 86.8469 16.3343 87.4269 16.9084C88.0129 17.4825 88.4686 18.2045 88.7941 19.0746C89.1196 19.9387 89.2824 20.9508 89.2824 22.1108V23.1495H77.7678V20.8058H85.7224C85.7224 20.2612 85.604 19.7789 85.3673 19.3587C85.1305 18.9384 84.8021 18.61 84.3818 18.3732C83.9675 18.1306 83.4852 18.0092 82.9347 18.0092C82.3606 18.0092 81.8517 18.1424 81.4078 18.4087C80.9698 18.6692 80.6265 19.0213 80.3779 19.4652C80.1294 19.9032 80.0021 20.3915 79.9962 20.93V23.1584C79.9962 23.8331 80.1205 24.4161 80.3691 24.9073C80.6236 25.3986 80.9816 25.7773 81.4433 26.0437C81.9049 26.31 82.4524 26.4432 83.0857 26.4432C83.5059 26.4432 83.8906 26.384 84.2398 26.2656C84.589 26.1473 84.8879 25.9697 85.1365 25.733C85.385 25.4962 85.5744 25.2062 85.7046 24.8629L89.2025 25.0938C89.0249 25.9342 88.661 26.6681 88.1105 27.2955C87.566 27.9169 86.8617 28.4022 85.9976 28.7514C85.1394 29.0947 84.1481 29.2663 83.0235 29.2663ZM97.6076 29V10.8182H104.781C106.16 10.8182 107.335 11.0816 108.305 11.6083C109.276 12.1291 110.016 12.8542 110.525 13.7834C111.04 14.7067 111.297 15.772 111.297 16.9794C111.297 18.1868 111.037 19.2521 110.516 20.1754C109.995 21.0987 109.241 21.8178 108.252 22.3327C107.27 22.8477 106.08 23.1051 104.683 23.1051H100.111V20.0245H104.062C104.802 20.0245 105.411 19.8973 105.891 19.6428C106.376 19.3823 106.737 19.0243 106.974 18.5685C107.216 18.1069 107.338 17.5772 107.338 16.9794C107.338 16.3757 107.216 15.849 106.974 15.3991C106.737 14.9434 106.376 14.5913 105.891 14.3427C105.405 14.0882 104.79 13.9609 104.044 13.9609H101.452V29H97.6076ZM119.665 29.2663C118.286 29.2663 117.093 28.9734 116.087 28.3874C115.087 27.7956 114.314 26.9729 113.77 25.9194C113.225 24.86 112.953 23.6319 112.953 22.2351C112.953 20.8265 113.225 19.5954 113.77 18.5419C114.314 17.4825 115.087 16.6598 116.087 16.0739C117.093 15.482 118.286 15.1861 119.665 15.1861C121.044 15.1861 122.233 15.482 123.233 16.0739C124.24 16.6598 125.015 17.4825 125.559 18.5419C126.104 19.5954 126.376 20.8265 126.376 22.2351C126.376 23.6319 126.104 24.86 125.559 25.9194C125.015 26.9729 124.24 27.7956 123.233 28.3874C122.233 28.9734 121.044 29.2663 119.665 29.2663ZM119.682 26.3366C120.31 26.3366 120.834 26.1591 121.254 25.804C121.674 25.4429 121.991 24.9517 122.204 24.3303C122.423 23.7088 122.532 23.0015 122.532 22.2085C122.532 21.4154 122.423 20.7081 122.204 20.0866C121.991 19.4652 121.674 18.974 121.254 18.6129C120.834 18.2519 120.31 18.0714 119.682 18.0714C119.049 18.0714 118.516 18.2519 118.084 18.6129C117.658 18.974 117.336 19.4652 117.117 20.0866C116.904 20.7081 116.797 21.4154 116.797 22.2085C116.797 23.0015 116.904 23.7088 117.117 24.3303C117.336 24.9517 117.658 25.4429 118.084 25.804C118.516 26.1591 119.049 26.3366 119.682 26.3366ZM134.997 29.2663C133.6 29.2663 132.398 28.9704 131.392 28.3786C130.392 27.7808 129.623 26.9522 129.084 25.8928C128.551 24.8333 128.285 23.6141 128.285 22.2351C128.285 20.8383 128.554 19.6132 129.093 18.5597C129.637 17.5002 130.41 16.6746 131.41 16.0827C132.41 15.485 133.6 15.1861 134.979 15.1861C136.169 15.1861 137.21 15.4021 138.104 15.8342C138.998 16.2662 139.705 16.8729 140.226 17.6541C140.747 18.4354 141.034 19.3527 141.087 20.4062H137.518C137.417 19.7256 137.151 19.1781 136.719 18.7638C136.293 18.3436 135.733 18.1335 135.041 18.1335C134.455 18.1335 133.943 18.2933 133.505 18.6129C133.073 18.9266 132.736 19.3853 132.493 19.989C132.25 20.5927 132.129 21.3236 132.129 22.1818C132.129 23.0518 132.247 23.7917 132.484 24.4013C132.727 25.0109 133.067 25.4755 133.505 25.7951C133.943 26.1147 134.455 26.2745 135.041 26.2745C135.473 26.2745 135.861 26.1857 136.204 26.0082C136.553 25.8306 136.84 25.5732 137.065 25.2358C137.296 24.8925 137.447 24.4812 137.518 24.0018H141.087C141.028 25.0434 140.744 25.9608 140.235 26.7539C139.731 27.5411 139.036 28.1566 138.148 28.6005C137.26 29.0444 136.21 29.2663 134.997 29.2663ZM146.935 25.076L146.944 20.5394H147.494L151.862 15.3636H156.204L150.335 22.2173H149.439L146.935 25.076ZM143.508 29V10.8182H147.29V29H143.508ZM152.031 29L148.018 23.0607L150.54 20.3885L156.461 29H152.031ZM163.712 29.2663C162.309 29.2663 161.102 28.9822 160.09 28.4141C159.084 27.84 158.308 27.0291 157.764 25.9815C157.219 24.928 156.947 23.6822 156.947 22.244C156.947 20.8413 157.219 19.6102 157.764 18.5508C158.308 17.4914 159.075 16.6657 160.063 16.0739C161.058 15.482 162.223 15.1861 163.561 15.1861C164.461 15.1861 165.298 15.3311 166.074 15.6211C166.855 15.9052 167.535 16.3343 168.115 16.9084C168.701 17.4825 169.157 18.2045 169.483 19.0746C169.808 19.9387 169.971 20.9508 169.971 22.1108V23.1495H158.456V20.8058H166.411C166.411 20.2612 166.292 19.7789 166.056 19.3587C165.819 18.9384 165.491 18.61 165.07 18.3732C164.656 18.1306 164.174 18.0092 163.623 18.0092C163.049 18.0092 162.54 18.1424 162.096 18.4087C161.658 18.6692 161.315 19.0213 161.066 19.4652C160.818 19.9032 160.691 20.3915 160.685 20.93V23.1584C160.685 23.8331 160.809 24.4161 161.058 24.9073C161.312 25.3986 161.67 25.7773 162.132 26.0437C162.593 26.31 163.141 26.4432 163.774 26.4432C164.194 26.4432 164.579 26.384 164.928 26.2656C165.277 26.1473 165.576 25.9697 165.825 25.733C166.074 25.4962 166.263 25.2062 166.393 24.8629L169.891 25.0938C169.713 25.9342 169.349 26.6681 168.799 27.2955C168.254 27.9169 167.55 28.4022 166.686 28.7514C165.828 29.0947 164.837 29.2663 163.712 29.2663ZM179.692 15.3636V18.2045H171.48V15.3636H179.692ZM173.344 12.0966H177.126V24.8097C177.126 25.1589 177.18 25.4311 177.286 25.6264C177.393 25.8158 177.541 25.949 177.73 26.0259C177.925 26.1029 178.15 26.1413 178.405 26.1413C178.582 26.1413 178.76 26.1265 178.938 26.0969C179.115 26.0614 179.251 26.0348 179.346 26.017L179.941 28.8313C179.751 28.8905 179.485 28.9586 179.142 29.0355C178.798 29.1184 178.381 29.1687 177.89 29.1864C176.978 29.2219 176.179 29.1006 175.493 28.8224C174.812 28.5443 174.283 28.1122 173.904 27.5263C173.525 26.9403 173.339 26.2005 173.344 25.3068V12.0966ZM188.013 29V10.8182H200.264V13.9876H191.857V18.32H199.634V21.4893H191.857V25.8306H200.3V29H188.013ZM206.41 15.3636L208.914 20.131L211.479 15.3636H215.359L211.408 22.1818L215.465 29H211.604L208.914 24.2859L206.268 29H202.362L206.41 22.1818L202.504 15.3636H206.41ZM223.331 29.2663C221.928 29.2663 220.721 28.9822 219.709 28.4141C218.703 27.84 217.927 27.0291 217.383 25.9815C216.838 24.928 216.566 23.6822 216.566 22.244C216.566 20.8413 216.838 19.6102 217.383 18.5508C217.927 17.4914 218.694 16.6657 219.682 16.0739C220.677 15.482 221.843 15.1861 223.18 15.1861C224.08 15.1861 224.917 15.3311 225.693 15.6211C226.474 15.9052 227.155 16.3343 227.735 16.9084C228.32 17.4825 228.776 18.2045 229.102 19.0746C229.427 19.9387 229.59 20.9508 229.59 22.1108V23.1495H218.075V20.8058H226.03C226.03 20.2612 225.912 19.7789 225.675 19.3587C225.438 18.9384 225.11 18.61 224.689 18.3732C224.275 18.1306 223.793 18.0092 223.242 18.0092C222.668 18.0092 222.159 18.1424 221.715 18.4087C221.277 18.6692 220.934 19.0213 220.686 19.4652C220.437 19.9032 220.31 20.3915 220.304 20.93V23.1584C220.304 23.8331 220.428 24.4161 220.677 24.9073C220.931 25.3986 221.289 25.7773 221.751 26.0437C222.213 26.31 222.76 26.4432 223.393 26.4432C223.814 26.4432 224.198 26.384 224.547 26.2656C224.897 26.1473 225.195 25.9697 225.444 25.733C225.693 25.4962 225.882 25.2062 226.012 24.8629L229.51 25.0938C229.333 25.9342 228.969 26.6681 228.418 27.2955C227.874 27.9169 227.169 28.4022 226.305 28.7514C225.447 29.0947 224.456 29.2663 223.331 29.2663ZM238.219 29.2663C236.823 29.2663 235.621 28.9704 234.615 28.3786C233.615 27.7808 232.845 26.9522 232.307 25.8928C231.774 24.8333 231.508 23.6141 231.508 22.2351C231.508 20.8383 231.777 19.6132 232.316 18.5597C232.86 17.5002 233.632 16.6746 234.633 16.0827C235.633 15.485 236.823 15.1861 238.202 15.1861C239.391 15.1861 240.433 15.4021 241.327 15.8342C242.22 16.2662 242.927 16.8729 243.448 17.6541C243.969 18.4354 244.256 19.3527 244.309 20.4062H240.741C240.64 19.7256 240.374 19.1781 239.942 18.7638C239.515 18.3436 238.956 18.1335 238.264 18.1335C237.678 18.1335 237.166 18.2933 236.728 18.6129C236.296 18.9266 235.958 19.3853 235.716 19.989C235.473 20.5927 235.352 21.3236 235.352 22.1818C235.352 23.0518 235.47 23.7917 235.707 24.4013C235.95 25.0109 236.29 25.4755 236.728 25.7951C237.166 26.1147 237.678 26.2745 238.264 26.2745C238.696 26.2745 239.083 26.1857 239.427 26.0082C239.776 25.8306 240.063 25.5732 240.288 25.2358C240.519 24.8925 240.67 24.4812 240.741 24.0018H244.309C244.25 25.0434 243.966 25.9608 243.457 26.7539C242.954 27.5411 242.259 28.1566 241.371 28.6005C240.483 29.0444 239.433 29.2663 238.219 29.2663ZM255.476 23.1939V15.3636H259.258V29H255.627V26.5231H255.484C255.177 27.3221 254.665 27.9643 253.949 28.4496C253.238 28.9349 252.371 29.1776 251.347 29.1776C250.436 29.1776 249.634 28.9704 248.941 28.5561C248.249 28.1418 247.707 27.5529 247.317 26.7894C246.932 26.0259 246.737 25.1115 246.731 24.0462V15.3636H250.513V23.3714C250.519 24.1764 250.735 24.8126 251.161 25.2802C251.587 25.7478 252.158 25.9815 252.874 25.9815C253.33 25.9815 253.756 25.878 254.153 25.6708C254.549 25.4577 254.869 25.1441 255.112 24.7298C255.36 24.3155 255.482 23.8035 255.476 23.1939ZM269.536 15.3636V18.2045H261.324V15.3636H269.536ZM263.188 12.0966H266.97V24.8097C266.97 25.1589 267.023 25.4311 267.13 25.6264C267.237 25.8158 267.384 25.949 267.574 26.0259C267.769 26.1029 267.994 26.1413 268.249 26.1413C268.426 26.1413 268.604 26.1265 268.781 26.0969C268.959 26.0614 269.095 26.0348 269.19 26.017L269.784 28.8313C269.595 28.8905 269.329 28.9586 268.985 29.0355C268.642 29.1184 268.225 29.1687 267.734 29.1864C266.822 29.2219 266.023 29.1006 265.337 28.8224C264.656 28.5443 264.126 28.1122 263.748 27.5263C263.369 26.9403 263.182 26.2005 263.188 25.3068V12.0966ZM271.999 29V15.3636H275.781V29H271.999ZM273.899 13.6058C273.337 13.6058 272.855 13.4194 272.452 13.0465C272.056 12.6677 271.857 12.215 271.857 11.6882C271.857 11.1674 272.056 10.7205 272.452 10.3477C272.855 9.96887 273.337 9.77947 273.899 9.77947C274.462 9.77947 274.941 9.96887 275.338 10.3477C275.74 10.7205 275.941 11.1674 275.941 11.6882C275.941 12.215 275.74 12.6677 275.338 13.0465C274.941 13.4194 274.462 13.6058 273.899 13.6058ZM291.524 15.3636L286.757 29H282.495L277.728 15.3636H281.723L284.555 25.1204H284.697L287.52 15.3636H291.524ZM299.234 29.2663C297.832 29.2663 296.624 28.9822 295.612 28.4141C294.606 27.84 293.831 27.0291 293.286 25.9815C292.742 24.928 292.47 23.6822 292.47 22.244C292.47 20.8413 292.742 19.6102 293.286 18.5508C293.831 17.4914 294.597 16.6657 295.586 16.0739C296.58 15.482 297.746 15.1861 299.084 15.1861C299.983 15.1861 300.821 15.3311 301.596 15.6211C302.377 15.9052 303.058 16.3343 303.638 16.9084C304.224 17.4825 304.68 18.2045 305.005 19.0746C305.331 19.9387 305.493 20.9508 305.493 22.1108V23.1495H293.979V20.8058H301.933C301.933 20.2612 301.815 19.7789 301.578 19.3587C301.341 18.9384 301.013 18.61 300.593 18.3732C300.178 18.1306 299.696 18.0092 299.146 18.0092C298.572 18.0092 298.063 18.1424 297.619 18.4087C297.181 18.6692 296.837 19.0213 296.589 19.4652C296.34 19.9032 296.213 20.3915 296.207 20.93V23.1584C296.207 23.8331 296.331 24.4161 296.58 24.9073C296.834 25.3986 297.193 25.7773 297.654 26.0437C298.116 26.31 298.663 26.4432 299.297 26.4432C299.717 26.4432 300.102 26.384 300.451 26.2656C300.8 26.1473 301.099 25.9697 301.347 25.733C301.596 25.4962 301.785 25.2062 301.916 24.8629L305.413 25.0938C305.236 25.9342 304.872 26.6681 304.321 27.2955C303.777 27.9169 303.073 28.4022 302.209 28.7514C301.35 29.0947 300.359 29.2663 299.234 29.2663Z" fill="black"/>
<path d="M1 4.66883C0.734792 4.66886 0.480453 4.76725 0.292922 4.94236C0.105392 5.11747 2.65169e-05 5.35496 0 5.6026V13.3226C0 14.1338 0.569421 14.8575 1.39648 15.1026H1.39844L2 15.2795V32.6818C2.00017 32.8667 2.0591 33.0474 2.16932 33.2009C2.27954 33.3545 2.43609 33.4741 2.61914 33.5445L18.8574 39.789C19.5887 40.0703 20.4113 40.0703 21.1426 39.789L37.3809 33.5445C37.5639 33.4741 37.7205 33.3545 37.8307 33.2009C37.9409 33.0474 37.9998 32.8667 38 32.6818V15.2795L38.6016 15.1026H38.6035C39.4305 14.8575 40 14.1338 40 13.3226V5.6026C40 5.35496 39.8946 5.11747 39.7071 4.94236C39.5195 4.76725 39.2652 4.66886 39 4.66883H1ZM2 6.53637H38V13.3226H37.998L36.8555 13.66C36.7522 13.6745 36.6521 13.7041 36.5586 13.7475L20.3008 18.5404V18.5422C20.1051 18.6 19.8949 18.6 19.6992 18.5422L19.6973 18.5404L2.00195 13.3226H2V6.53637ZM20 13.0727C19.4696 13.0727 18.9609 13.2695 18.5858 13.6197C18.2107 13.97 18 14.445 18 14.9403C18 15.4356 18.2107 15.9106 18.5858 16.2608C18.9609 16.611 19.4696 16.8078 20 16.8078C20.5304 16.8078 21.0391 16.611 21.4142 16.2608C21.7893 15.9106 22 15.4356 22 14.9403C22 14.445 21.7893 13.97 21.4142 13.6197C21.0391 13.2695 20.5304 13.0727 20 13.0727ZM4 15.8704L19.0957 20.3222C19.6834 20.4958 20.3146 20.4954 20.9023 20.3222L36 15.8704V32.0563L20.3809 38.0619C20.1362 38.1561 19.8638 38.1561 19.6191 38.0619L4 32.0563V15.8704ZM7 17.8163C6.447 17.8163 6 18.2337 6 18.7501V20.6559C6 21.1723 6.447 21.5897 7 21.5897C7.553 21.5897 8 21.1723 8 20.6559V18.7501C8 18.2337 7.553 17.8163 7 17.8163ZM33 17.8163C32.447 17.8163 32 18.2337 32 18.7501V20.6541C32 21.1705 32.447 21.5879 33 21.5879C33.553 21.5879 34 21.1705 34 20.6541V18.7501C34 18.2337 33.553 17.8163 33 17.8163ZM33 23.5302C32.447 23.5302 32 23.9476 32 24.464V26.3698C32 26.8862 32.447 27.3036 33 27.3036C33.553 27.3036 34 26.8862 34 26.3698V24.464C34 23.9476 33.553 23.5302 33 23.5302ZM7 23.532C6.447 23.532 6 23.9494 6 24.4658V26.3698C6 26.8862 6.447 27.3036 7 27.3036C7.553 27.3036 8 26.8862 8 26.3698V24.4658C8 23.9494 7.553 23.532 7 23.532ZM7 28.3121C6.447 28.3121 6 28.7295 6 29.2459V30.1796C6 30.5587 6.24414 30.9003 6.61914 31.0441L7.54492 31.3997C7.66992 31.4474 7.79878 31.469 7.92578 31.469C8.31778 31.469 8.68961 31.2513 8.84961 30.8909C9.05961 30.4138 8.81764 29.8697 8.30664 29.6726L8 29.5541V29.2459C8 28.7295 7.553 28.3121 7 28.3121ZM33 28.3121C32.447 28.3121 32 28.7295 32 29.2459V29.5541L31.6934 29.6726C31.1824 29.8697 30.9404 30.4138 31.1504 30.8909C31.3094 31.2513 31.6812 31.469 32.0742 31.469C32.2012 31.469 32.3301 31.4474 32.4551 31.3997L33.3809 31.0441C33.7559 30.9003 34 30.5578 34 30.1796V29.2459C34 28.7295 33.553 28.3121 33 28.3121ZM11.3652 30.9292C10.9754 30.9331 10.6075 31.1495 10.4492 31.5073C10.2392 31.9845 10.4831 32.5313 10.9941 32.7274L12.7188 33.3895C12.8438 33.4371 12.9726 33.4588 13.0996 33.4588C13.4916 33.4588 13.8654 33.2429 14.0254 32.8825C14.2354 32.4053 13.9915 31.8584 13.4805 31.6624L11.7559 30.9985C11.6279 30.9502 11.4952 30.9279 11.3652 30.9292ZM28.6348 30.931C28.5048 30.9297 28.3724 30.9504 28.2441 30.9985L26.5195 31.6624C26.0085 31.8584 25.7646 32.4053 25.9746 32.8825C26.1336 33.2429 26.5074 33.4588 26.9004 33.4588C27.0274 33.4588 27.1562 33.4371 27.2812 33.3895L29.0059 32.7274C29.5169 32.5313 29.7608 31.9845 29.5508 31.5073C29.3925 31.1495 29.0248 30.935 28.6348 30.931ZM16.5391 32.9189C16.1493 32.9228 15.7813 33.1392 15.623 33.4971C15.413 33.9742 15.657 34.5211 16.168 34.7172L17.8926 35.3792C18.0176 35.4268 18.1464 35.4503 18.2734 35.4503C18.6664 35.4503 19.0402 35.2317 19.1992 34.8722C19.4092 34.395 19.1653 33.8482 18.6543 33.6521L16.9297 32.9882C16.8019 32.9399 16.669 32.9176 16.5391 32.9189ZM23.4609 32.9189C23.3309 32.9176 23.1986 32.9399 23.0703 32.9882L21.3438 33.6521C20.8328 33.8491 20.5908 34.395 20.8008 34.8722C20.9598 35.2326 21.3316 35.4503 21.7246 35.4503C21.8516 35.4503 21.9795 35.4277 22.1055 35.381L23.832 34.7172C24.343 34.5201 24.587 33.9742 24.377 33.4971C24.2195 33.1392 23.8512 32.9228 23.4609 32.9189Z" fill="black"/>
<path d="M25.5 4.66883H27.5V2.8013C27.5 1.26569 26.1445 0 24.5 0H14.5C12.8555 0 11.5 1.26569 11.5 2.8013V4.66883H13.5V2.8013C13.5 2.27606 13.9375 1.86753 14.5 1.86753H24.5C25.0625 1.86753 25.5 2.27606 25.5 2.8013V4.66883Z" fill="black"/>
</svg>
