<svg width="40" height="40" viewBox="0 0 40 40" fill="none" xmlns="http://www.w3.org/2000/svg">
<path d="M1 4.66883C0.734792 4.66886 0.480453 4.76725 0.292922 4.94236C0.105392 5.11747 2.65169e-05 5.35496 0 5.6026V13.3226C0 14.1338 0.569421 14.8575 1.39648 15.1026H1.39844L2 15.2795V32.6818C2.00017 32.8667 2.0591 33.0474 2.16932 33.2009C2.27954 33.3545 2.43609 33.4741 2.61914 33.5445L18.8574 39.789C19.5887 40.0703 20.4113 40.0703 21.1426 39.789L37.3809 33.5445C37.5639 33.4741 37.7205 33.3545 37.8307 33.2009C37.9409 33.0474 37.9998 32.8667 38 32.6818V15.2795L38.6016 15.1026H38.6035C39.4305 14.8575 40 14.1338 40 13.3226V5.6026C40 5.35496 39.8946 5.11747 39.7071 4.94236C39.5195 4.76725 39.2652 4.66886 39 4.66883H1ZM2 6.53637H38V13.3226H37.998L36.8555 13.66C36.7522 13.6745 36.6521 13.7041 36.5586 13.7475L20.3008 18.5404V18.5422C20.1051 18.6 19.8949 18.6 19.6992 18.5422L19.6973 18.5404L2.00195 13.3226H2V6.53637ZM20 13.0727C19.4696 13.0727 18.9609 13.2695 18.5858 13.6197C18.2107 13.97 18 14.445 18 14.9403C18 15.4356 18.2107 15.9106 18.5858 16.2608C18.9609 16.611 19.4696 16.8078 20 16.8078C20.5304 16.8078 21.0391 16.611 21.4142 16.2608C21.7893 15.9106 22 15.4356 22 14.9403C22 14.445 21.7893 13.97 21.4142 13.6197C21.0391 13.2695 20.5304 13.0727 20 13.0727ZM4 15.8704L19.0957 20.3222C19.6834 20.4958 20.3146 20.4954 20.9023 20.3222L36 15.8704V32.0563L20.3809 38.0619C20.1362 38.1561 19.8638 38.1561 19.6191 38.0619L4 32.0563V15.8704ZM7 17.8163C6.447 17.8163 6 18.2337 6 18.7501V20.6559C6 21.1723 6.447 21.5897 7 21.5897C7.553 21.5897 8 21.1723 8 20.6559V18.7501C8 18.2337 7.553 17.8163 7 17.8163ZM33 17.8163C32.447 17.8163 32 18.2337 32 18.7501V20.6541C32 21.1705 32.447 21.5879 33 21.5879C33.553 21.5879 34 21.1705 34 20.6541V18.7501C34 18.2337 33.553 17.8163 33 17.8163ZM33 23.5302C32.447 23.5302 32 23.9476 32 24.464V26.3698C32 26.8862 32.447 27.3036 33 27.3036C33.553 27.3036 34 26.8862 34 26.3698V24.464C34 23.9476 33.553 23.5302 33 23.5302ZM7 23.532C6.447 23.532 6 23.9494 6 24.4658V26.3698C6 26.8862 6.447 27.3036 7 27.3036C7.553 27.3036 8 26.8862 8 26.3698V24.4658C8 23.9494 7.553 23.532 7 23.532ZM7 28.3121C6.447 28.3121 6 28.7295 6 29.2459V30.1796C6 30.5587 6.24414 30.9003 6.61914 31.0441L7.54492 31.3997C7.66992 31.4474 7.79878 31.469 7.92578 31.469C8.31778 31.469 8.68961 31.2513 8.84961 30.8909C9.05961 30.4138 8.81764 29.8697 8.30664 29.6726L8 29.5541V29.2459C8 28.7295 7.553 28.3121 7 28.3121ZM33 28.3121C32.447 28.3121 32 28.7295 32 29.2459V29.5541L31.6934 29.6726C31.1824 29.8697 30.9404 30.4138 31.1504 30.8909C31.3094 31.2513 31.6812 31.469 32.0742 31.469C32.2012 31.469 32.3301 31.4474 32.4551 31.3997L33.3809 31.0441C33.7559 30.9003 34 30.5578 34 30.1796V29.2459C34 28.7295 33.553 28.3121 33 28.3121ZM11.3652 30.9292C10.9754 30.9331 10.6075 31.1495 10.4492 31.5073C10.2392 31.9845 10.4831 32.5313 10.9941 32.7274L12.7188 33.3895C12.8438 33.4371 12.9726 33.4588 13.0996 33.4588C13.4916 33.4588 13.8654 33.2429 14.0254 32.8825C14.2354 32.4053 13.9915 31.8584 13.4805 31.6624L11.7559 30.9985C11.6279 30.9502 11.4952 30.9279 11.3652 30.9292ZM28.6348 30.931C28.5048 30.9297 28.3724 30.9504 28.2441 30.9985L26.5195 31.6624C26.0085 31.8584 25.7646 32.4053 25.9746 32.8825C26.1336 33.2429 26.5074 33.4588 26.9004 33.4588C27.0274 33.4588 27.1562 33.4371 27.2812 33.3895L29.0059 32.7274C29.5169 32.5313 29.7608 31.9845 29.5508 31.5073C29.3925 31.1495 29.0248 30.935 28.6348 30.931ZM16.5391 32.9189C16.1493 32.9228 15.7813 33.1392 15.623 33.4971C15.413 33.9742 15.657 34.5211 16.168 34.7172L17.8926 35.3792C18.0176 35.4268 18.1464 35.4503 18.2734 35.4503C18.6664 35.4503 19.0402 35.2317 19.1992 34.8722C19.4092 34.395 19.1653 33.8482 18.6543 33.6521L16.9297 32.9882C16.8019 32.9399 16.669 32.9176 16.5391 32.9189ZM23.4609 32.9189C23.3309 32.9176 23.1986 32.9399 23.0703 32.9882L21.3438 33.6521C20.8328 33.8491 20.5908 34.395 20.8008 34.8722C20.9598 35.2326 21.3316 35.4503 21.7246 35.4503C21.8516 35.4503 21.9795 35.4277 22.1055 35.381L23.832 34.7172C24.343 34.5201 24.587 33.9742 24.377 33.4971C24.2195 33.1392 23.8512 32.9228 23.4609 32.9189Z" fill="black"/>
<path d="M25.5 4.66883H27.5V2.8013C27.5 1.26569 26.1445 0 24.5 0H14.5C12.8555 0 11.5 1.26569 11.5 2.8013V4.66883H13.5V2.8013C13.5 2.27606 13.9375 1.86753 14.5 1.86753H24.5C25.0625 1.86753 25.5 2.27606 25.5 2.8013V4.66883Z" fill="black"/>
</svg>
